<mxfile host="app.diagrams.net" modified="2024-08-15T04:54:05.934Z" agent="Mozilla/5.0 (Windows NT 10.0; Win64; x64) AppleWebKit/537.36 (KHTML, like Gecko) Chrome/127.0.0.0 Safari/537.36" etag="Bk7e3qUJMQQihmwjPBBX" version="24.5.5" type="github">
  <diagram name="Page-1" id="5KtbHxgfiA2ik8w_qsww">
    <mxGraphModel dx="1134" dy="654" grid="1" gridSize="10" guides="1" tooltips="1" connect="1" arrows="1" fold="1" page="1" pageScale="1" pageWidth="827" pageHeight="1169" math="0" shadow="0">
      <root>
        <mxCell id="0" />
        <mxCell id="1" parent="0" />
        <mxCell id="h2Z1xg8esxs15_aSe1Hl-3" style="edgeStyle=orthogonalEdgeStyle;rounded=0;orthogonalLoop=1;jettySize=auto;html=1;" edge="1" parent="1" source="h2Z1xg8esxs15_aSe1Hl-1" target="h2Z1xg8esxs15_aSe1Hl-2">
          <mxGeometry relative="1" as="geometry" />
        </mxCell>
        <mxCell id="h2Z1xg8esxs15_aSe1Hl-1" value="Read Sensor" style="rounded=1;whiteSpace=wrap;html=1;" vertex="1" parent="1">
          <mxGeometry x="400" y="140" width="120" height="50" as="geometry" />
        </mxCell>
        <mxCell id="h2Z1xg8esxs15_aSe1Hl-5" style="edgeStyle=orthogonalEdgeStyle;rounded=0;orthogonalLoop=1;jettySize=auto;html=1;" edge="1" parent="1" source="h2Z1xg8esxs15_aSe1Hl-2">
          <mxGeometry relative="1" as="geometry">
            <mxPoint x="465.71" y="370" as="targetPoint" />
          </mxGeometry>
        </mxCell>
        <mxCell id="h2Z1xg8esxs15_aSe1Hl-18" value="True" style="edgeLabel;html=1;align=center;verticalAlign=middle;resizable=0;points=[];" vertex="1" connectable="0" parent="h2Z1xg8esxs15_aSe1Hl-5">
          <mxGeometry x="-0.2648" y="-3" relative="1" as="geometry">
            <mxPoint as="offset" />
          </mxGeometry>
        </mxCell>
        <mxCell id="h2Z1xg8esxs15_aSe1Hl-17" style="edgeStyle=orthogonalEdgeStyle;rounded=0;orthogonalLoop=1;jettySize=auto;html=1;exitX=1;exitY=0.5;exitDx=0;exitDy=0;" edge="1" parent="1" source="h2Z1xg8esxs15_aSe1Hl-2">
          <mxGeometry relative="1" as="geometry">
            <mxPoint x="460" y="100" as="targetPoint" />
            <Array as="points">
              <mxPoint x="575" y="275" />
              <mxPoint x="575" y="100" />
            </Array>
          </mxGeometry>
        </mxCell>
        <mxCell id="h2Z1xg8esxs15_aSe1Hl-28" value="False" style="edgeLabel;html=1;align=center;verticalAlign=middle;resizable=0;points=[];" vertex="1" connectable="0" parent="h2Z1xg8esxs15_aSe1Hl-17">
          <mxGeometry x="-0.223" y="2" relative="1" as="geometry">
            <mxPoint as="offset" />
          </mxGeometry>
        </mxCell>
        <mxCell id="h2Z1xg8esxs15_aSe1Hl-2" value="Chance of rain &amp;gt; 80%" style="rhombus;whiteSpace=wrap;html=1;" vertex="1" parent="1">
          <mxGeometry x="365" y="230" width="190" height="90" as="geometry" />
        </mxCell>
        <mxCell id="h2Z1xg8esxs15_aSe1Hl-7" style="edgeStyle=orthogonalEdgeStyle;rounded=0;orthogonalLoop=1;jettySize=auto;html=1;" edge="1" parent="1" source="h2Z1xg8esxs15_aSe1Hl-4" target="h2Z1xg8esxs15_aSe1Hl-6">
          <mxGeometry relative="1" as="geometry">
            <mxPoint x="465.71" y="570" as="sourcePoint" />
          </mxGeometry>
        </mxCell>
        <mxCell id="h2Z1xg8esxs15_aSe1Hl-4" value="Turn on water" style="rounded=1;whiteSpace=wrap;html=1;" vertex="1" parent="1">
          <mxGeometry x="405.71" y="490" width="120" height="60" as="geometry" />
        </mxCell>
        <mxCell id="h2Z1xg8esxs15_aSe1Hl-9" style="edgeStyle=orthogonalEdgeStyle;rounded=0;orthogonalLoop=1;jettySize=auto;html=1;" edge="1" parent="1" source="h2Z1xg8esxs15_aSe1Hl-6" target="h2Z1xg8esxs15_aSe1Hl-8">
          <mxGeometry relative="1" as="geometry" />
        </mxCell>
        <mxCell id="h2Z1xg8esxs15_aSe1Hl-16" value="True" style="edgeLabel;html=1;align=center;verticalAlign=middle;resizable=0;points=[];" vertex="1" connectable="0" parent="h2Z1xg8esxs15_aSe1Hl-9">
          <mxGeometry x="0.0258" relative="1" as="geometry">
            <mxPoint as="offset" />
          </mxGeometry>
        </mxCell>
        <mxCell id="h2Z1xg8esxs15_aSe1Hl-14" style="edgeStyle=orthogonalEdgeStyle;rounded=0;orthogonalLoop=1;jettySize=auto;html=1;" edge="1" parent="1" source="h2Z1xg8esxs15_aSe1Hl-6">
          <mxGeometry relative="1" as="geometry">
            <mxPoint x="465.71" y="610" as="targetPoint" />
            <Array as="points">
              <mxPoint x="465.71" y="780" />
              <mxPoint x="635.71" y="780" />
              <mxPoint x="635.71" y="610" />
              <mxPoint x="545.71" y="610" />
            </Array>
          </mxGeometry>
        </mxCell>
        <mxCell id="h2Z1xg8esxs15_aSe1Hl-15" value="False" style="edgeLabel;html=1;align=center;verticalAlign=middle;resizable=0;points=[];" vertex="1" connectable="0" parent="h2Z1xg8esxs15_aSe1Hl-14">
          <mxGeometry x="-0.6247" y="4" relative="1" as="geometry">
            <mxPoint as="offset" />
          </mxGeometry>
        </mxCell>
        <mxCell id="h2Z1xg8esxs15_aSe1Hl-6" value="Run time expired" style="rhombus;whiteSpace=wrap;html=1;" vertex="1" parent="1">
          <mxGeometry x="365.71" y="630" width="200" height="90" as="geometry" />
        </mxCell>
        <mxCell id="h2Z1xg8esxs15_aSe1Hl-20" style="edgeStyle=orthogonalEdgeStyle;rounded=0;orthogonalLoop=1;jettySize=auto;html=1;" edge="1" parent="1" source="h2Z1xg8esxs15_aSe1Hl-8">
          <mxGeometry relative="1" as="geometry">
            <mxPoint x="460" y="110" as="targetPoint" />
            <Array as="points">
              <mxPoint x="230" y="110" />
            </Array>
          </mxGeometry>
        </mxCell>
        <mxCell id="h2Z1xg8esxs15_aSe1Hl-8" value="Turn off water" style="rounded=1;whiteSpace=wrap;html=1;" vertex="1" parent="1">
          <mxGeometry x="170" y="505" width="120" height="60" as="geometry" />
        </mxCell>
        <mxCell id="h2Z1xg8esxs15_aSe1Hl-13" style="edgeStyle=orthogonalEdgeStyle;rounded=0;orthogonalLoop=1;jettySize=auto;html=1;" edge="1" parent="1" source="h2Z1xg8esxs15_aSe1Hl-12" target="h2Z1xg8esxs15_aSe1Hl-1">
          <mxGeometry relative="1" as="geometry" />
        </mxCell>
        <mxCell id="h2Z1xg8esxs15_aSe1Hl-12" value="Begin" style="rounded=1;whiteSpace=wrap;html=1;arcSize=50;" vertex="1" parent="1">
          <mxGeometry x="400" y="20" width="120" height="60" as="geometry" />
        </mxCell>
        <mxCell id="h2Z1xg8esxs15_aSe1Hl-24" style="edgeStyle=orthogonalEdgeStyle;rounded=0;orthogonalLoop=1;jettySize=auto;html=1;" edge="1" parent="1" source="h2Z1xg8esxs15_aSe1Hl-22" target="h2Z1xg8esxs15_aSe1Hl-4">
          <mxGeometry relative="1" as="geometry" />
        </mxCell>
        <mxCell id="h2Z1xg8esxs15_aSe1Hl-26" style="edgeStyle=orthogonalEdgeStyle;rounded=0;orthogonalLoop=1;jettySize=auto;html=1;" edge="1" parent="1" source="h2Z1xg8esxs15_aSe1Hl-22">
          <mxGeometry relative="1" as="geometry">
            <mxPoint x="450" y="120" as="targetPoint" />
            <Array as="points">
              <mxPoint x="680" y="405" />
              <mxPoint x="680" y="120" />
            </Array>
          </mxGeometry>
        </mxCell>
        <mxCell id="h2Z1xg8esxs15_aSe1Hl-27" value="False" style="edgeLabel;html=1;align=center;verticalAlign=middle;resizable=0;points=[];" vertex="1" connectable="0" parent="h2Z1xg8esxs15_aSe1Hl-26">
          <mxGeometry x="-0.0595" y="-7" relative="1" as="geometry">
            <mxPoint as="offset" />
          </mxGeometry>
        </mxCell>
        <mxCell id="h2Z1xg8esxs15_aSe1Hl-22" value="Amount of rain &amp;gt; 20%" style="rhombus;whiteSpace=wrap;html=1;" vertex="1" parent="1">
          <mxGeometry x="370.71" y="360" width="190" height="90" as="geometry" />
        </mxCell>
        <mxCell id="h2Z1xg8esxs15_aSe1Hl-25" style="edgeStyle=orthogonalEdgeStyle;rounded=0;orthogonalLoop=1;jettySize=auto;html=1;exitX=0.5;exitY=1;exitDx=0;exitDy=0;" edge="1" parent="1" source="h2Z1xg8esxs15_aSe1Hl-1" target="h2Z1xg8esxs15_aSe1Hl-1">
          <mxGeometry relative="1" as="geometry" />
        </mxCell>
      </root>
    </mxGraphModel>
  </diagram>
</mxfile>
